<svg width="50" height="50" viewBox="0 0 50 50" fill="none" xmlns="http://www.w3.org/2000/svg">
<rect width="50" height="50" rx="3" fill="#B0413E"/>
<path d="M11.6665 30V33.3333H38.3332V30H34.9998V18.3333C34.9998 16.0278 34.3054 13.9792 32.9165 12.1875C31.5276 10.3958 29.7221 9.22223 27.4998 8.66667C27.4998 8.66667 25.9848 8.33334 24.9998 8.33334C24.0149 8.33334 22.4998 8.66667 22.4998 8.66667C20.2776 9.22223 18.4721 10.3958 17.0832 12.1875C15.6943 13.9792 14.9998 16.0278 14.9998 18.3333V30H11.6665Z" fill="#2589BD"/>
<path d="M21.4688 36.8646C22.4479 37.8438 23.625 38.3333 25 38.3333C26.375 38.3333 27.5521 37.8438 28.5313 36.8646C29.5104 35.8854 30 34.7083 30 33.3333H20C20 34.7083 20.4896 35.8854 21.4688 36.8646Z" fill="#C9C9CB"/>
</svg>
