<svg fill="none" height="92" viewBox="0 0 92 92" width="92" xmlns="http://www.w3.org/2000/svg"><path d="m0 0h91.56v91.56h-91.56z" fill="#fff853"/><path d="m39 27 6.5-1.5h2.5l7 3.5 3.5 7.5v5.5l4.5-.5v1.5 2.5l-3 1-1 1.5 2.5 5 6.5 3.5-1.5 2-4.5 1.5-1 2-1 1.5h-5.5l-2.5 1-5.5 3-3.5-1-4-2-3-1h-4l-1.5-1-1.5-2.5-2.5-.5-2-1.5v-1.5l2.5-1.5 4.5-3.5 1-3.5-4-2.5.5-2.5 1.5-1.5 3 .5 1.5-9z" fill="#fff"/><path d="m45.8839 26.8705c6.1481.0021 11.2693 5.125 11.2767 11.2934.0018 1.4448.0463 2.7752.1278 4.0008.0502.7562.6786 1.3165 1.3991 1.3165.1062 0 .2143-.0121.3228-.0376l1.926-.4518c.082-.0193.1642-.0285.2455-.0285.4892 0 .9396.3345 1.0494.8299.1552.7002-.2367 1.4076-.9145 1.6455l-2.9236 1.1812c-.738.2982-1.1345 1.1022-.9266 1.8713 2.3455 8.679 8.8967 7.7764 8.8967 8.9071 0 1.4199-4.9379 1.6204-5.3841 2.067-.4461.4466-.0193 2.614-1.0161 3.0336-.1879.0791-.4548.1066-.7804.1066-.7508 0-1.8127-.1467-2.9318-.1467-.9708 0-1.9847.1103-2.876.5225-2.3647 1.0933-4.6444 3.1354-7.4706 3.1354-2.8261 0-5.1059-2.0421-7.4705-3.1354-.8916-.4123-1.9052-.5225-2.876-.5225-1.1191 0-2.1811.1467-2.9318.1467-.3254 0-.5926-.0276-.7804-.1066-.9968-.4196-.5701-2.587-1.0162-3.0336s-5.384-.6472-5.384-2.0671c0-1.1308 6.5512-.2282 8.8967-8.9071.2078-.769-.1886-1.573-.9268-1.8713l-2.9235-1.1812c-.6779-.2379-1.0699-.9453-.9145-1.6455.1098-.4955.5602-.83 1.0494-.8299.0811 0 .1635.0092.2455.0285l1.9259.4518c.1086.0255.2167.0376.3228.0376.7205 0 1.3489-.5604 1.3992-1.3165.0815-1.2256.1261-2.556.1278-4.0007.0075-6.1684 5.0879-11.2912 11.2361-11.2934zm.0008-2.4474h-.0018c-1.8351.0006-3.6228.3697-5.3131 1.097-1.6226.6981-3.0829 1.6936-4.3404 2.9587-1.2558 1.2634-2.244 2.7302-2.9373 4.3596-.7209 1.6943-1.0875 3.4851-1.0897 5.3225-.0011.9021-.0198 1.7776-.0558 2.616l-.7165-.1682c-.2629-.0616-.5333-.093-.8033-.0931-.7799-.0001-1.5492.2638-2.1662.7429-.6436.4998-1.095 1.2117-1.2708 2.0043-.4183 1.8868.6226 3.7916 2.4264 4.4614l2.1456.8669c-1.4207 4.3648-4.0406 5.2013-5.8048 5.7647-.4681.1494-.8725.2786-1.2574.4698-1.534.762-1.6996 2.053-1.6996 2.5726 0 .9953.4707 1.9036 1.3254 2.5575.4256.3256.9528.5942 1.6116.8212.898.3095 1.939.5059 2.7851.6633.0409.3138.1008.6508.2019.9905.4195 1.4108 1.3048 2.0425 1.9736 2.324.6346.2672 1.2903.298 1.7283.298.4284 0 .8813-.0336 1.3607-.0691.5144-.0382 1.0463-.0776 1.5711-.0776.8132 0 1.4185.0972 1.8505.2969.5933.2743 1.2224.6441 1.8885 1.0356 1.8542 1.09 3.9559 2.3255 6.6075 2.3255 2.6517 0 4.7532-1.2355 6.6075-2.3255.6661-.3916 1.2952-.7613 1.8885-1.0356.4321-.1998 1.0374-.2969 1.8506-.2969.5248 0 1.0566.0395 1.5709.0776.4795.0355.9324.0691 1.3608.0691.438 0 1.0936-.0308 1.7283-.298.6688-.2815 1.5541-.9132 1.9736-2.324.101-.3397.1611-.6767.2019-.9905.846-.1575 1.8871-.3538 2.785-.6633.659-.227 1.1861-.4956 1.6116-.8212.8547-.6539 1.3255-1.5622 1.3255-2.5575 0-.5196-.1656-1.8106-1.6998-2.5725-.385-.1912-.7893-.3204-1.2574-.4698-1.7642-.5633-4.3841-1.3999-5.8049-5.7647l2.1456-.8669c1.8038-.6698 2.8448-2.5747 2.4265-4.4615-.1758-.7926-.6272-1.5045-1.2709-2.0043-.617-.479-1.386-.7429-2.1657-.7429-.27 0-.5404.0314-.8035.093l-.7167.1682c-.036-.8383-.0546-1.7138-.0557-2.616-.0023-1.8389-.3718-3.6314-1.0984-5.3279-.6975-1.6287-1.6912-3.0951-2.9533-4.3586s-2.7265-2.2578-4.3524-2.9553c-1.6936-.7265-3.4825-1.0952-5.3171-1.0959z" fill="#050505"/></svg>